#!OML:ASF X:\für Bonn\!DataBase\2005_08_12_Daniel\c3d\Daniel.ASF
:FULLY-SPECIFIED
:DEGREES
144
root 5.12961 16.1552 6.28246 888.225 -42.8694 -182.935
lowerback 33.8585 -0.232499 -2.34771
upperback 10.5347 -3.63454 -3.6108
thorax -5.77322 -2.6455 -1.18654
lowerneck -1.54239 2.03634 -1.65189
upperneck 2.55533 2.75035 -0.0596916
head 1.01396 1.35296 0.290249
rclavicle 1.39149e-014 4.29375e-014
rhumerus -39.2437 -2.70499 -89.2969
rradius 68.597
rwrist 9.45276
rhand -33.6678 7.63298
rfingers 7.12502
rthumb -6.8589 -22.2359
lclavicle 1.39149e-014 4.29375e-014
lhumerus -26.3244 19.0607 81.1394
lradius 70.5256
lwrist -25.1566
lhand -28.0879 3.62179
lfingers 7.12502
lthumb -1.47079 33.5965
rfemur -31.2767 13.2146 16.821
rtibia 32.3877
rfoot -21.2711 -3.64894
rtoes -17.731
lfemur 7.61182 2.41581 -25.6335
ltibia 51.3509
lfoot -37.8367 -4.21973
ltoes -3.56821
145
root 5.03784 16.1317 6.18013 888.332 -42.8211 -183.026
lowerback 33.6715 -0.333317 -2.23422
upperback 10.5592 -3.70681 -3.59186
thorax -5.68367 -2.67831 -1.20888
lowerneck -1.66949 2.05747 -1.52722
upperneck 2.47532 2.78108 -0.149374
head 1.01313 1.36938 0.243659
rclavicle -2.62396e-014 4.13472e-014
rhumerus -39.34 -2.84282 -89.3818
rradius 68.8049
rwrist 9.36931
rhand -33.7932 7.57157
rfingers 7.12502
rthumb -6.97997 -22.2933
lclavicle -2.62396e-014 4.13472e-014
lhumerus -26.3843 18.9812 81.1846
lradius 70.6727
lwrist -25.0194
lhand -28.0032 3.63631
lfingers 7.12502
lthumb -1.38899 33.6115
rfemur -31.4785 13.7377 16.5398
rtibia 32.2038
rfoot -21.9166 -3.88581
rtoes -17.6358
lfemur 8.14869 2.5341 -25.635
ltibia 51.2674
lfoot -37.9797 -4.32508
ltoes -3.5926
146
root 4.94623 16.1083 6.07676 888.438 -42.7793 -183.092
lowerback 33.5049 -0.447831 -2.10931
upperback 10.5634 -3.78933 -3.55422
thorax -5.62276 -2.71401 -1.2132
lowerneck -1.78352 2.08084 -1.47544
upperneck 2.39324 2.81533 -0.215179
head 1.00823 1.38706 0.216265
rclavicle -1.51076e-014 -7.4743e-014
rhumerus -39.3976 -2.97128 -89.4475
rradius 68.9548
rwrist 9.22049
rhand -33.8583 7.58916
rfingers 7.12502
rthumb -7.04278 -22.2737
lclavicle -1.51076e-014 -7.4743e-014
lhumerus -26.5015 18.9979 81.2463
lradius 70.847
lwrist -24.9692
lhand -27.9015 3.59859
lfingers 7.12502
lthumb -1.29075 33.5744
rfemur -31.7474 14.0336 16.3674
rtibia 32.1989
rfoot -22.454 -4.10208
rtoes -18.0216
lfemur 8.6682 2.6646 -25.6018
ltibia 51.1832
lfoot -38.1025 -4.41978
ltoes -3.61707
147
root 4.85382 16.0861 5.97235 888.562 -42.7377 -183.167
lowerback 33.3302 -0.554948 -1.978
upperback 10.58 -3.86305 -3.52101
thorax -5.54596 -2.74648 -1.22966
lowerneck -1.90387 2.09957 -1.41317
upperneck 2.29498 2.84293 -0.279813
head 0.999574 1.40161 0.187387
rclavicle 5.96354e-015 2.62396e-014
rhumerus -39.4298 -3.06833 -89.5003
rradius 69.094
rwrist 9.06143
rhand -33.9638 7.57108
rfingers 7.12502
rthumb -7.14459 -22.2883
lclavicle 5.96354e-015 2.62396e-014
lhumerus -26.5943 18.9636 81.3426
lradius 71.0627
lwrist -24.8722
lhand -27.8189 3.66187
lfingers 7.12502
lthumb -1.21104 33.6382
rfemur -31.9767 13.9816 16.356
rtibia 32.2459
rfoot -22.685 -4.33149
rtoes -18.7271
lfemur 9.20962 2.80092 -25.5741
ltibia 51.024
lfoot -38.1832 -4.51906
ltoes -3.72996
148
root 4.76125 16.0653 5.86746 888.706 -42.7147 -183.233
lowerback 32.7868 -0.693683 -1.7917
upperback 10.957 -3.94428 -3.46401
thorax -5.5214 -2.7935 -1.33988
lowerneck -1.98496 2.12982 -1.36611
upperneck 2.20022 2.88491 -0.333518
head 0.984946 1.42323 0.164071
rclavicle 4.73108e-014 -3.73715e-014
rhumerus -39.4924 -3.18658 -89.5437
rradius 69.1999
rwrist 8.94845
rhand -34.0017 7.48285
rfingers 7.12502
rthumb -7.18117 -22.3753
lclavicle 4.73108e-014 -3.73715e-014
lhumerus -26.746 18.9943 81.432
lradius 71.291
lwrist -24.7956
lhand -27.7208 3.61213
lfingers 7.12502
lthumb -1.11624 33.589
rfemur -32.2003 13.6231 16.4955
rtibia 32.4141
rfoot -22.5117 -4.561
rtoes -18.9315
lfemur 9.73138 2.91146 -25.5337
ltibia 50.8501
lfoot -38.2354 -4.63636
ltoes -3.64708
149
root 4.66837 16.0449 5.76146 888.848 -42.6882 -183.284
lowerback 32.6376 -0.816153 -1.62999
upperback 10.9385 -4.02535 -3.41835
thorax -5.48346 -2.82557 -1.35778
lowerneck -2.02279 2.14972 -1.3924
upperneck 2.04017 2.91313 -0.354702
head 0.941223 1.43833 0.16137
rclavicle -6.75868e-014 1.90833e-014
rhumerus -39.5438 -3.29521 -89.5439
rradius 69.279
rwrist 8.87708
rhand -34.0052 7.44153
rfingers 7.12502
rthumb -7.18463 -22.4165
lclavicle -6.75868e-014 1.90833e-014
lhumerus -26.8671 19.0035 81.5365
lradius 71.5266
lwrist -24.7206
lhand -27.6038 3.63567
lfingers 7.12502
lthumb -1.0033 33.6131
rfemur -32.4246 13.1595 16.6901
rtibia 32.6703
rfoot -21.9368 -4.72554
rtoes -18.6176
lfemur 10.2597 3.00822 -25.4896
ltibia 50.6595
lfoot -38.2844 -4.76265
ltoes -3.69572
150
root 4.57597 16.0246 5.65477 889.003 -42.6758 -183.329
lowerback 32.5043 -0.944547 -1.45956
upperback 10.9151 -4.11266 -3.37816
thorax -5.45939 -2.86002 -1.38401
lowerneck -2.08043 2.16825 -1.36731
upperneck 1.88326 2.93904 -0.415324
head 0.903217 1.45209 0.13849
rclavicle 1.74931e-014 -4.77083e-014
rhumerus -39.6009 -3.42763 -89.5623
rradius 69.3418
rwrist 8.78394
rhand -33.982 7.41858
rfingers 7.12502
rthumb -7.16222 -22.4402
lclavicle 1.74931e-014 -4.77083e-014
lhumerus -26.9717 19.0378 81.6399
lradius 71.7334
lwrist -24.6441
lhand -27.4695 3.61248
lfingers 7.12502
lthumb -0.873568 33.5904
rfemur -32.6602 12.6892 16.8807
rtibia 32.9839
rfoot -21.0858 -4.80287
rtoes -18.4027
lfemur 10.7739 3.09134 -25.4294
ltibia 50.4537
lfoot -38.3154 -4.91276
ltoes -3.64644
151
root 4.48225 16.0047 5.54756 889.14 -42.6506 -183.354
lowerback 32.3883 -1.07633 -1.24794
upperback 10.8859 -4.19362 -3.3473
thorax -5.45254 -2.89038 -1.44589
lowerneck -2.08285 2.18948 -1.35719
upperneck 1.7225 2.96685 -0.43743
head 0.853959 1.46722 0.129044
rclavicle 7.95139e-016 -6.99722e-014
rhumerus -39.6611 -3.5511 -89.5912
rradius 69.393
rwrist 8.69959
rhand -33.9933 7.38407
rfingers 7.12502
rthumb -7.17309 -22.4744
lclavicle 7.95139e-016 -6.99722e-014
lhumerus -27.0987 19.0291 81.7239
lradius 71.9656
lwrist -24.5739
lhand -27.3783 3.63549
lfingers 7.12502
lthumb -0.785426 33.6138
rfemur -32.8493 12.1786 17.1011
rtibia 33.331
rfoot -20.0267 -4.74777
rtoes -18.3013
lfemur 11.3114 3.13525 -25.3852
ltibia 50.2355
lfoot -38.3363 -5.03172
ltoes -3.6647
